<svg width="32" height="26" viewBox="0 0 32 26" fill="none" xmlns="http://www.w3.org/2000/svg">
<g clip-path="url(#clip0_14_61)">
<path d="M31.6997 23.399L1.79973 0.174375C1.71772 0.109135 1.62357 0.0605836 1.52268 0.0314926C1.42178 0.0024015 1.31611 -0.00665931 1.21169 0.00482748C1.10727 0.0163143 1.00615 0.0481237 0.914105 0.0984396C0.822058 0.148755 0.740887 0.216592 0.675226 0.298077L0.175226 0.918574C0.109411 1.00009 0.0604185 1.09369 0.0310525 1.19404C0.00168663 1.29439 -0.00747662 1.3995 0.00408713 1.50337C0.0156509 1.60724 0.0477147 1.70782 0.0984437 1.79936C0.149173 1.8909 0.217571 1.97161 0.299726 2.03686L30.1997 25.2615C30.2817 25.3268 30.3759 25.3753 30.4768 25.4044C30.5777 25.4335 30.6833 25.4426 30.7878 25.4311C30.8922 25.4196 30.9933 25.3878 31.0853 25.3375C31.1774 25.2871 31.2586 25.2193 31.3242 25.1378L31.8242 24.5173C31.89 24.4358 31.939 24.3422 31.9684 24.2419C31.9978 24.1415 32.0069 24.0364 31.9954 23.9325C31.9838 23.8287 31.9517 23.7281 31.901 23.6365C31.8503 23.545 31.7819 23.4643 31.6997 23.399ZM14.8392 7.27655L21.5787 12.5118C21.4677 9.53399 19.0237 7.15385 15.9997 7.15385C15.6097 7.15457 15.2207 7.1957 14.8392 7.27655ZM17.1602 18.1598L10.4207 12.9246C10.5322 15.9019 12.9762 18.2821 15.9997 18.2821C16.3898 18.2812 16.7787 18.2403 17.1602 18.1598ZM15.9997 5.5641C20.9322 5.5641 25.4542 8.29647 27.8962 12.7179C27.2976 13.8061 26.558 14.8116 25.6962 15.7087L27.5832 17.1742C28.6338 16.0575 29.5239 14.8018 30.2282 13.4428C30.3426 13.218 30.4022 12.9696 30.4022 12.7177C30.4022 12.4658 30.3426 12.2174 30.2282 11.9926C27.5142 6.73604 22.1462 3.17949 15.9997 3.17949C14.1647 3.17949 12.4142 3.52724 10.7682 4.11396L13.0887 5.91683C14.0357 5.70321 15.0057 5.5641 15.9997 5.5641ZM15.9997 19.8718C11.0672 19.8718 6.54573 17.1394 4.10323 12.7179C4.70262 11.6298 5.4431 10.6245 6.30573 9.72774L4.41873 8.2622C3.3683 9.37873 2.47836 10.6343 1.77423 11.9931C1.65985 12.2179 1.60025 12.4663 1.60025 12.7182C1.60025 12.9701 1.65985 13.2185 1.77423 13.4433C4.48573 18.6999 9.85373 22.2564 15.9997 22.2564C17.8347 22.2564 19.5852 21.9062 21.2312 21.3219L18.9107 19.5196C17.9637 19.7327 16.9942 19.8718 15.9997 19.8718Z" fill="#1B7F99"/>
</g>
<defs>
<clipPath id="clip0_14_61">
<rect width="32" height="25.4359" fill="white"/>
</clipPath>
</defs>
</svg>
