<?xml version="1.0" ?>
    <svg viewBox="0 0 32 32" xmlns="http://www.w3.org/2000/svg">
    <g data-name="Layer 33" id="Layer_33" fill="#1B7F99">
        <path d="M24,30H8a5.74,5.74,0,0,1-6-6V11a1,1,0,0,1,1-1H29a1,1,0,0,1,1,1V24A5.74,5.74,0,0,1,24,30ZM4,12V24a3.75,3.75,0,0,0,4,4H24a3.75,3.75,0,0,0,4-4V12Z"/>
        <path d="M28,12H8a1,1,0,0,1-1-.73,1,1,0,0,1,.44-1.12l13-8a1,1,0,0,1,1.27.19l7,8A1,1,0,0,1,28,12ZM11.53,10H25.8l-5-5.71Z"/>
        <path d="M5,12a1,1,0,0,1-.71-.29,1,1,0,0,1,0-1.42l8-8a1,1,0,0,1,1.42,0l3,3a1,1,0,0,1-1.42,1.42L13,4.41l-7.29,7.3A1,1,0,0,1,5,12Z"/>
        <path d="M25,22a2,2,0,1,1,2-2A2,2,0,0,1,25,22Zm0-2h0Zm0,0h0Zm0,0h0Zm0,0h0Zm0,0h0Zm0,0h0Zm0,0h0Zm0,0h0Z"/>
        <polygon points="11.52 8.83 26.11 8.83 28.14 10.87 8 10.87 11.52 8.83"/>
        <path d="M16,25.69c-7.75,0-12-6.36-12-8.44l-.71,7.93A3.61,3.61,0,0,0,7,29H25a3.53,3.53,0,0,0,3.61-3.82L28,22C28,24.5,23.75,25.69,16,25.69Z"/>
    </g>
</svg>