<svg width="184" height="25" viewBox="0 0 184 25" fill="none" xmlns="http://www.w3.org/2000/svg">
<path d="M0.792 18.112H1.112C1.64533 18.3893 2.28533 18.656 3.032 18.912C3.77867 19.168 4.58933 19.3813 5.464 19.552C6.36 19.7013 7.256 19.776 8.152 19.776C9.09067 19.776 9.86933 19.712 10.488 19.584C11.128 19.456 11.608 19.2533 11.928 18.976C12.2693 18.6773 12.44 18.2827 12.44 17.792C12.44 17.1733 12.2267 16.7147 11.8 16.416C11.3947 16.1173 10.6587 15.8827 9.592 15.712L7.48 15.392C5.90133 15.1573 4.55733 14.752 3.448 14.176C2.36 13.6 1.53867 12.8427 0.984 11.904C0.429333 10.944 0.152 9.792 0.152 8.448C0.152 6.80533 0.536 5.39733 1.304 4.224C2.09333 3.05067 3.288 2.15467 4.888 1.536C6.488 0.895999 8.536 0.575998 11.032 0.575998C12.1413 0.575998 13.208 0.671998 14.232 0.863998C15.256 1.03467 16.1093 1.26933 16.792 1.568V6.4H16.44C15.8 6.10133 14.9787 5.824 13.976 5.568C12.9733 5.312 11.8533 5.184 10.616 5.184C9.54933 5.184 8.64267 5.29067 7.896 5.504C7.17067 5.71733 6.616 6.048 6.232 6.496C5.848 6.92267 5.656 7.46667 5.656 8.128C5.656 8.98133 5.93333 9.58933 6.488 9.952C7.04267 10.3147 7.93867 10.6027 9.176 10.816L11.192 11.136C12.4507 11.328 13.592 11.6693 14.616 12.16C15.6613 12.6507 16.4827 13.3333 17.08 14.208C17.6987 15.0827 18.008 16.2347 18.008 17.664C18.008 18.88 17.752 19.9253 17.24 20.8C16.728 21.6533 16.0133 22.3467 15.096 22.88C14.2 23.392 13.1547 23.7653 11.96 24C10.7867 24.256 9.51733 24.384 8.152 24.384C7.192 24.384 6.24267 24.32 5.304 24.192C4.38667 24.0853 3.53333 23.936 2.744 23.744C1.95467 23.552 1.304 23.3493 0.792 23.136V18.112ZM40.981 24.288C40.085 24.288 39.189 24.2347 38.293 24.128C37.4183 24.0213 36.5543 23.872 35.701 23.68L35.637 23.296C35.6583 22.784 35.669 22.2507 35.669 21.696C35.669 21.1413 35.6583 20.576 35.637 20C35.637 19.424 35.6157 18.8587 35.573 18.304L33.909 0.959999H39.317L40.693 16.48C40.7357 17.2693 40.757 18.0373 40.757 18.784C40.7783 19.5093 40.7783 20.1493 40.757 20.704L38.709 19.328C39.1143 19.392 39.4877 19.4453 39.829 19.488C40.1917 19.5307 40.5757 19.552 40.981 19.552C41.877 19.552 42.6343 19.4133 43.253 19.136C43.8717 18.8587 44.3517 18.4533 44.693 17.92C45.0557 17.3867 45.2903 16.7253 45.397 15.936L47.829 0.959999H53.525L50.901 16.352C50.6023 18.1867 50.0157 19.6907 49.141 20.864C48.2663 22.0373 47.1463 22.9013 45.781 23.456C44.4157 24.0107 42.8157 24.288 40.981 24.288ZM26.581 24.288C25.813 24.288 25.109 24.2347 24.469 24.128C23.829 24.0427 23.1037 23.8933 22.293 23.68L22.197 23.296C22.2397 22.848 22.2503 22.304 22.229 21.664C22.229 21.024 22.2077 20.3947 22.165 19.776C22.1437 19.136 22.101 18.6027 22.037 18.176L20.469 0.959999H26.165L27.509 16.48C27.5943 17.2693 27.637 18.0373 27.637 18.784C27.637 19.5093 27.637 20.1493 27.637 20.704L26.549 19.36C26.8263 19.424 27.093 19.4773 27.349 19.52C27.6263 19.5413 27.9143 19.552 28.213 19.552C29.1303 19.552 29.8557 19.392 30.389 19.072C30.9437 18.7307 31.381 18.272 31.701 17.696C32.021 17.0987 32.2877 16.4267 32.501 15.68L35.573 5.568L36.629 15.68L35.829 17.92C35.3597 19.264 34.709 20.416 33.877 21.376C33.045 22.3147 32.021 23.04 30.805 23.552C29.589 24.0427 28.181 24.288 26.581 24.288ZM56.7445 0.959999H62.4405V24H56.7445V0.959999ZM67.307 24V0.959999H72.107L80.075 14.048L77.739 14.08L85.579 0.959999H90.379V24H84.715V9.12L85.867 9.44L80.203 18.848H77.483L71.819 9.568L73.003 9.248V24H67.307ZM98.3165 24V19.52H105.389C106.029 19.52 106.562 19.36 106.989 19.04C107.415 18.72 107.629 18.1973 107.629 17.472C107.629 16.832 107.415 16.3627 106.989 16.064C106.583 15.744 106.05 15.584 105.389 15.584H98.3165V11.456H104.045C104.77 11.456 105.357 11.3067 105.805 11.008C106.274 10.688 106.626 10.2827 106.861 9.792C107.117 9.28 107.245 8.72533 107.245 8.128C107.245 7.14667 106.957 6.48533 106.381 6.144C105.826 5.80267 105.133 5.632 104.301 5.632H98.3165V0.959999H104.717C107.469 0.959999 109.517 1.51467 110.861 2.624C112.226 3.712 112.909 5.312 112.909 7.424C112.909 8.29867 112.727 9.16267 112.365 10.016C112.023 10.8693 111.501 11.6373 110.797 12.32C110.114 12.9813 109.261 13.504 108.237 13.888L107.981 12.768C109.709 12.896 111.021 13.44 111.917 14.4C112.834 15.36 113.293 16.5333 113.293 17.92C113.293 19.1787 112.994 20.2667 112.397 21.184C111.821 22.08 110.957 22.7733 109.805 23.264C108.674 23.7547 107.277 24 105.613 24H98.3165ZM95.2445 24V0.959999H100.941V24H95.2445ZM115.807 24L118.367 8.896C118.644 7.232 119.092 5.86667 119.711 4.8C120.329 3.73333 121.097 2.90133 122.015 2.304C122.953 1.70667 124.052 1.29067 125.311 1.056C126.569 0.821332 127.977 0.703999 129.535 0.703999C130.431 0.703999 131.401 0.757332 132.447 0.863998C133.492 0.970665 134.441 1.12 135.295 1.312L135.359 1.696C135.273 2.08 135.209 2.592 135.167 3.232C135.145 3.872 135.124 4.52267 135.103 5.184C135.103 5.84533 135.103 6.38933 135.103 6.816V24H129.439V7.392C129.439 6.77333 129.46 6.208 129.503 5.696C129.567 5.16267 129.641 4.68267 129.727 4.256L130.463 5.632C130.228 5.568 129.908 5.52533 129.503 5.504C129.119 5.46133 128.756 5.44 128.415 5.44C127.412 5.44 126.612 5.57867 126.015 5.856C125.417 6.112 124.959 6.50667 124.639 7.04C124.34 7.57333 124.116 8.256 123.967 9.088L121.503 24H115.807ZM119.903 18.112V13.568H132.063V18.112H119.903ZM139.995 24V0.959999H144.539L155.963 12.512V19.968L144.059 7.936L145.691 7.264V24H139.995ZM154.075 24V0.959999H159.739V24H154.075ZM171.788 16.128H167.692V11.264H171.468C172.513 11.264 173.313 11.0507 173.868 10.624C174.444 10.1973 174.86 9.57867 175.116 8.768L177.868 0.959999H183.5V1.312L180.172 10.208C179.788 11.3173 179.201 12.32 178.412 13.216C177.622 14.112 176.673 14.8267 175.564 15.36C174.454 15.872 173.196 16.128 171.788 16.128ZM164.652 24V0.959999H170.316V24H164.652ZM177.164 13.184L183.884 23.648V24H177.804L172.588 15.232L177.164 13.184Z" fill="#1B7F99"/>
</svg>
